<svg width="20" height="20" viewBox="0 0 20 20" fill="none" xmlns="http://www.w3.org/2000/svg">
<path d="M2.5 5H4.16667H17.5" stroke="#ACACAC" stroke-linecap="round" stroke-linejoin="round"/>
<path d="M16.3332 5.00008C16.3332 4.72394 16.1093 4.50008 15.8332 4.50008C15.557 4.50008 15.3332 4.72394 15.3332 5.00008H16.3332ZM4.6665 5.00008C4.6665 4.72394 4.44265 4.50008 4.1665 4.50008C3.89036 4.50008 3.6665 4.72394 3.6665 5.00008H4.6665ZM6.1665 5.00008C6.1665 5.27622 6.39036 5.50008 6.6665 5.50008C6.94265 5.50008 7.1665 5.27622 7.1665 5.00008H6.1665ZM12.8332 5.00008C12.8332 5.27622 13.057 5.50008 13.3332 5.50008C13.6093 5.50008 13.8332 5.27622 13.8332 5.00008H12.8332ZM15.3332 5.00008V16.6667H16.3332V5.00008H15.3332ZM15.3332 16.6667C15.3332 17.3111 14.8108 17.8334 14.1665 17.8334V18.8334C15.3631 18.8334 16.3332 17.8634 16.3332 16.6667H15.3332ZM14.1665 17.8334H5.83317V18.8334H14.1665V17.8334ZM5.83317 17.8334C5.18884 17.8334 4.6665 17.3111 4.6665 16.6667H3.6665C3.6665 17.8634 4.63655 18.8334 5.83317 18.8334V17.8334ZM4.6665 16.6667V5.00008H3.6665V16.6667H4.6665ZM7.1665 5.00008V3.33341H6.1665V5.00008H7.1665ZM7.1665 3.33341C7.1665 2.68908 7.68884 2.16675 8.33317 2.16675V1.16675C7.13655 1.16675 6.1665 2.1368 6.1665 3.33341H7.1665ZM8.33317 2.16675H11.6665V1.16675H8.33317V2.16675ZM11.6665 2.16675C12.3108 2.16675 12.8332 2.68908 12.8332 3.33341H13.8332C13.8332 2.1368 12.8631 1.16675 11.6665 1.16675V2.16675ZM12.8332 3.33341V5.00008H13.8332V3.33341H12.8332Z" fill="#ACACAC"/>
</svg>
